<?xml version="1.0" encoding="UTF-8"?>
<svg xmlns="http://www.w3.org/2000/svg" version="1.1" width="400" height="400" viewBox="0 0 400 400"><rect x="0" y="0" width="400" height="400" fill="#ffffff"/><g transform="scale(10.811)"><g transform="translate(0,0)"><path fill-rule="evenodd" d="M9 0L9 1L8 1L8 2L9 2L9 3L8 3L8 4L10 4L10 7L11 7L11 4L12 4L12 5L13 5L13 6L12 6L12 9L13 9L13 8L14 8L14 9L16 9L16 10L15 10L15 11L14 11L14 12L15 12L15 11L16 11L16 12L17 12L17 11L16 11L16 10L17 10L17 9L19 9L19 8L20 8L20 10L21 10L21 11L20 11L20 12L19 12L19 10L18 10L18 12L19 12L19 13L16 13L16 14L15 14L15 13L12 13L12 11L13 11L13 10L10 10L10 9L11 9L11 8L6 8L6 9L5 9L5 8L0 8L0 10L2 10L2 11L0 11L0 13L1 13L1 15L0 15L0 16L1 16L1 17L0 17L0 18L1 18L1 19L0 19L0 22L2 22L2 23L0 23L0 29L1 29L1 24L2 24L2 26L5 26L5 22L4 22L4 19L5 19L5 21L7 21L7 20L6 20L6 19L8 19L8 20L9 20L9 22L11 22L11 21L12 21L12 22L13 22L13 23L12 23L12 25L13 25L13 24L14 24L14 25L16 25L16 26L15 26L15 27L14 27L14 28L15 28L15 27L16 27L16 28L17 28L17 26L18 26L18 28L19 28L19 30L18 30L18 29L17 29L17 30L15 30L15 29L12 29L12 27L13 27L13 26L11 26L11 25L10 25L10 24L9 24L9 23L8 23L8 22L6 22L6 23L7 23L7 24L6 24L6 25L7 25L7 26L6 26L6 27L5 27L5 29L8 29L8 31L9 31L9 32L8 32L8 37L10 37L10 36L11 36L11 37L12 37L12 35L13 35L13 34L11 34L11 35L9 35L9 33L11 33L11 32L10 32L10 31L11 31L11 29L12 29L12 30L13 30L13 31L12 31L12 33L13 33L13 32L14 32L14 33L15 33L15 32L16 32L16 33L17 33L17 35L18 35L18 36L16 36L16 34L15 34L15 35L14 35L14 36L15 36L15 37L20 37L20 36L21 36L21 37L23 37L23 36L22 36L22 35L19 35L19 34L18 34L18 32L19 32L19 33L20 33L20 34L21 34L21 33L20 33L20 32L19 32L19 30L21 30L21 32L22 32L22 33L23 33L23 34L24 34L24 33L23 33L23 32L22 32L22 30L21 30L21 29L20 29L20 28L22 28L22 29L23 29L23 30L24 30L24 31L25 31L25 30L24 30L24 29L23 29L23 28L22 28L22 27L20 27L20 28L19 28L19 26L18 26L18 24L19 24L19 25L20 25L20 26L24 26L24 27L26 27L26 28L25 28L25 29L27 29L27 30L26 30L26 32L25 32L25 34L26 34L26 35L27 35L27 36L24 36L24 37L28 37L28 36L30 36L30 37L31 37L31 36L30 36L30 35L29 35L29 34L31 34L31 35L32 35L32 34L33 34L33 35L34 35L34 34L35 34L35 35L36 35L36 36L32 36L32 37L37 37L37 30L35 30L35 32L33 32L33 30L34 30L34 29L35 29L35 28L33 28L33 26L34 26L34 27L36 27L36 28L37 28L37 26L36 26L36 25L37 25L37 22L36 22L36 21L37 21L37 18L36 18L36 17L37 17L37 14L36 14L36 13L35 13L35 12L34 12L34 11L35 11L35 9L36 9L36 8L35 8L35 9L34 9L34 8L33 8L33 9L34 9L34 11L31 11L31 10L32 10L32 8L31 8L31 10L30 10L30 11L28 11L28 10L29 10L29 9L30 9L30 8L29 8L29 6L28 6L28 5L27 5L27 3L24 3L24 2L25 2L25 0L20 0L20 2L19 2L19 0L15 0L15 1L18 1L18 3L17 3L17 2L16 2L16 3L17 3L17 5L19 5L19 4L18 4L18 3L20 3L20 5L21 5L21 6L20 6L20 7L19 7L19 6L18 6L18 8L17 8L17 6L16 6L16 4L12 4L12 2L13 2L13 1L11 1L11 2L10 2L10 0ZM26 0L26 1L27 1L27 2L28 2L28 3L29 3L29 0L28 0L28 1L27 1L27 0ZM22 1L22 2L24 2L24 1ZM14 2L14 3L15 3L15 2ZM20 2L20 3L21 3L21 2ZM10 3L10 4L11 4L11 3ZM21 4L21 5L23 5L23 8L21 8L21 7L22 7L22 6L21 6L21 7L20 7L20 8L21 8L21 9L23 9L23 10L22 10L22 12L20 12L20 13L21 13L21 14L17 14L17 15L16 15L16 16L15 16L15 15L14 15L14 16L13 16L13 17L12 17L12 15L13 15L13 14L12 14L12 13L10 13L10 10L9 10L9 9L8 9L8 10L9 10L9 12L8 12L8 11L6 11L6 10L7 10L7 9L6 9L6 10L5 10L5 9L4 9L4 10L3 10L3 9L2 9L2 10L3 10L3 12L2 12L2 14L4 14L4 15L5 15L5 16L3 16L3 17L1 17L1 18L3 18L3 19L1 19L1 21L3 21L3 19L4 19L4 17L5 17L5 19L6 19L6 18L8 18L8 17L9 17L9 18L10 18L10 19L11 19L11 18L13 18L13 19L12 19L12 21L15 21L15 22L16 22L16 24L18 24L18 22L19 22L19 23L20 23L20 25L24 25L24 26L25 26L25 25L24 25L24 24L26 24L26 26L28 26L28 27L29 27L29 26L31 26L31 25L29 25L29 24L36 24L36 23L34 23L34 21L32 21L32 22L33 22L33 23L29 23L29 24L28 24L28 23L27 23L27 22L28 22L28 21L29 21L29 20L27 20L27 21L25 21L25 20L26 20L26 19L27 19L27 18L28 18L28 17L26 17L26 18L25 18L25 20L23 20L23 21L22 21L22 20L21 20L21 19L24 19L24 18L23 18L23 17L21 17L21 19L20 19L20 18L19 18L19 19L17 19L17 18L16 18L16 17L17 17L17 16L18 16L18 17L19 17L19 15L20 15L20 16L21 16L21 14L22 14L22 16L23 16L23 15L24 15L24 16L27 16L27 15L26 15L26 14L28 14L28 16L31 16L31 17L29 17L29 19L30 19L30 18L31 18L31 19L32 19L32 20L36 20L36 19L35 19L35 18L34 18L34 17L32 17L32 16L31 16L31 15L30 15L30 14L31 14L31 13L32 13L32 14L33 14L33 16L35 16L35 17L36 17L36 14L35 14L35 15L34 15L34 13L32 13L32 12L31 12L31 13L30 13L30 14L28 14L28 13L29 13L29 12L28 12L28 13L26 13L26 14L25 14L25 13L24 13L24 12L27 12L27 10L28 10L28 9L29 9L29 8L28 8L28 6L27 6L27 8L28 8L28 9L23 9L23 8L24 8L24 5L25 5L25 8L26 8L26 4ZM8 5L8 7L9 7L9 5ZM13 6L13 7L14 7L14 8L15 8L15 7L16 7L16 6L15 6L15 7L14 7L14 6ZM4 10L4 11L5 11L5 10ZM25 10L25 11L26 11L26 10ZM36 10L36 11L37 11L37 10ZM3 12L3 13L4 13L4 12ZM6 12L6 13L7 13L7 12ZM22 12L22 13L23 13L23 14L24 14L24 13L23 13L23 12ZM8 13L8 14L6 14L6 15L7 15L7 16L6 16L6 17L7 17L7 16L8 16L8 14L9 14L9 17L10 17L10 18L11 18L11 17L10 17L10 16L11 16L11 14L10 14L10 13ZM14 16L14 17L15 17L15 16ZM15 18L15 19L14 19L14 20L15 20L15 21L16 21L16 22L18 22L18 20L15 20L15 19L16 19L16 18ZM33 18L33 19L34 19L34 18ZM19 19L19 20L20 20L20 19ZM10 20L10 21L11 21L11 20ZM19 21L19 22L20 22L20 23L21 23L21 24L22 24L22 23L23 23L23 22L24 22L24 21L23 21L23 22L22 22L22 21ZM30 21L30 22L31 22L31 21ZM25 22L25 23L26 23L26 24L27 24L27 23L26 23L26 22ZM3 23L3 24L4 24L4 23ZM14 23L14 24L15 24L15 23ZM7 24L7 25L8 25L8 24ZM28 25L28 26L29 26L29 25ZM32 25L32 26L33 26L33 25ZM34 25L34 26L35 26L35 25ZM2 27L2 29L3 29L3 27ZM6 27L6 28L8 28L8 29L9 29L9 27ZM29 29L29 32L32 32L32 29ZM9 30L9 31L10 31L10 30ZM27 30L27 32L28 32L28 30ZM30 30L30 31L31 31L31 30ZM14 31L14 32L15 32L15 31ZM16 31L16 32L18 32L18 31ZM26 33L26 34L27 34L27 35L28 35L28 34L29 34L29 33ZM31 33L31 34L32 34L32 33ZM33 33L33 34L34 34L34 33ZM0 0L0 7L7 7L7 0ZM1 1L1 6L6 6L6 1ZM2 2L2 5L5 5L5 2ZM30 0L30 7L37 7L37 0ZM31 1L31 6L36 6L36 1ZM32 2L32 5L35 5L35 2ZM0 30L0 37L7 37L7 30ZM1 31L1 36L6 36L6 31ZM2 32L2 35L5 35L5 32Z" fill="#000000"/></g></g></svg>
