<?xml version="1.0" encoding="UTF-8"?>
<svg xmlns="http://www.w3.org/2000/svg" version="1.1" width="400" height="400" viewBox="0 0 400 400"><rect x="0" y="0" width="400" height="400" fill="#ffffff"/><g transform="scale(10.811)"><g transform="translate(0,0)"><path fill-rule="evenodd" d="M9 0L9 1L8 1L8 2L9 2L9 3L8 3L8 4L10 4L10 7L11 7L11 4L12 4L12 5L13 5L13 6L12 6L12 9L13 9L13 8L14 8L14 9L16 9L16 10L15 10L15 11L14 11L14 12L15 12L15 11L16 11L16 12L17 12L17 11L18 11L18 10L19 10L19 9L20 9L20 11L21 11L21 12L19 12L19 14L17 14L17 13L16 13L16 14L15 14L15 13L12 13L12 11L13 11L13 10L9 10L9 9L11 9L11 8L6 8L6 9L5 9L5 8L0 8L0 9L4 9L4 10L3 10L3 12L2 12L2 14L3 14L3 13L4 13L4 12L5 12L5 14L6 14L6 15L7 15L7 14L8 14L8 12L9 12L9 13L10 13L10 15L11 15L11 13L12 13L12 14L13 14L13 15L12 15L12 17L13 17L13 16L14 16L14 17L15 17L15 16L16 16L16 15L18 15L18 16L20 16L20 19L21 19L21 21L17 21L17 20L15 20L15 19L16 19L16 18L17 18L17 17L16 17L16 18L15 18L15 19L14 19L14 20L15 20L15 21L12 21L12 19L13 19L13 18L11 18L11 17L10 17L10 16L9 16L9 17L7 17L7 16L5 16L5 15L3 15L3 16L4 16L4 17L3 17L3 19L2 19L2 21L1 21L1 22L3 22L3 23L4 23L4 25L5 25L5 23L4 23L4 22L3 22L3 20L4 20L4 21L5 21L5 22L6 22L6 23L7 23L7 24L6 24L6 25L7 25L7 24L8 24L8 25L9 25L9 26L8 26L8 27L7 27L7 26L5 26L5 27L2 27L2 29L3 29L3 28L4 28L4 29L8 29L8 31L10 31L10 32L11 32L11 31L10 31L10 30L11 30L11 29L12 29L12 30L13 30L13 31L12 31L12 33L13 33L13 32L14 32L14 33L15 33L15 32L16 32L16 33L17 33L17 32L16 32L16 31L17 31L17 30L15 30L15 29L12 29L12 27L13 27L13 26L11 26L11 24L10 24L10 23L11 23L11 21L12 21L12 22L13 22L13 23L12 23L12 25L13 25L13 24L14 24L14 25L16 25L16 26L15 26L15 27L14 27L14 28L15 28L15 27L16 27L16 28L17 28L17 27L18 27L18 28L19 28L19 29L20 29L20 32L22 32L22 34L21 34L21 33L20 33L20 35L18 35L18 36L16 36L16 34L15 34L15 35L14 35L14 36L15 36L15 37L19 37L19 36L20 36L20 37L23 37L23 36L22 36L22 34L24 34L24 33L23 33L23 32L22 32L22 31L21 31L21 30L24 30L24 31L25 31L25 30L24 30L24 29L23 29L23 27L22 27L22 26L24 26L24 27L26 27L26 28L25 28L25 29L27 29L27 30L26 30L26 32L25 32L25 34L26 34L26 35L27 35L27 36L24 36L24 37L28 37L28 36L30 36L30 37L31 37L31 36L30 36L30 35L29 35L29 34L31 34L31 35L32 35L32 34L33 34L33 35L34 35L34 34L35 34L35 35L36 35L36 36L32 36L32 37L37 37L37 30L35 30L35 32L33 32L33 30L34 30L34 29L35 29L35 28L33 28L33 26L34 26L34 27L36 27L36 28L37 28L37 26L36 26L36 25L37 25L37 22L36 22L36 21L37 21L37 18L36 18L36 17L37 17L37 14L36 14L36 13L35 13L35 12L34 12L34 11L35 11L35 9L36 9L36 8L35 8L35 9L34 9L34 8L33 8L33 9L34 9L34 11L31 11L31 10L32 10L32 8L31 8L31 10L30 10L30 11L28 11L28 10L29 10L29 9L30 9L30 8L29 8L29 6L28 6L28 5L27 5L27 3L25 3L25 1L24 1L24 0L23 0L23 1L21 1L21 0L20 0L20 1L21 1L21 2L20 2L20 3L21 3L21 4L19 4L19 5L18 5L18 8L19 8L19 9L18 9L18 10L17 10L17 6L16 6L16 4L12 4L12 2L13 2L13 1L11 1L11 2L10 2L10 0ZM15 0L15 1L17 1L17 2L16 2L16 3L17 3L17 4L18 4L18 3L19 3L19 2L18 2L18 1L17 1L17 0ZM26 0L26 1L27 1L27 2L28 2L28 3L29 3L29 0L28 0L28 1L27 1L27 0ZM23 1L23 2L24 2L24 1ZM14 2L14 3L15 3L15 2ZM17 2L17 3L18 3L18 2ZM10 3L10 4L11 4L11 3ZM21 4L21 5L19 5L19 8L21 8L21 11L22 11L22 12L23 12L23 11L24 11L24 12L27 12L27 10L28 10L28 9L29 9L29 8L28 8L28 6L27 6L27 8L28 8L28 9L24 9L24 8L26 8L26 4ZM8 5L8 7L9 7L9 5ZM21 5L21 6L20 6L20 7L21 7L21 8L22 8L22 9L23 9L23 8L24 8L24 7L25 7L25 6L24 6L24 7L23 7L23 5ZM13 6L13 7L14 7L14 8L15 8L15 7L16 7L16 6L15 6L15 7L14 7L14 6ZM21 6L21 7L22 7L22 6ZM6 9L6 10L5 10L5 12L7 12L7 11L8 11L8 10L7 10L7 9ZM0 10L0 11L1 11L1 10ZM6 10L6 11L7 11L7 10ZM16 10L16 11L17 11L17 10ZM25 10L25 11L26 11L26 10ZM36 10L36 11L37 11L37 10ZM0 12L0 15L1 15L1 12ZM10 12L10 13L11 13L11 12ZM28 12L28 13L26 13L26 14L25 14L25 13L20 13L20 14L19 14L19 15L20 15L20 14L21 14L21 15L22 15L22 16L23 16L23 15L24 15L24 16L27 16L27 15L26 15L26 14L28 14L28 16L31 16L31 17L29 17L29 19L30 19L30 18L31 18L31 19L32 19L32 20L36 20L36 19L35 19L35 18L34 18L34 17L32 17L32 16L31 16L31 15L30 15L30 14L31 14L31 13L32 13L32 14L33 14L33 16L35 16L35 17L36 17L36 14L35 14L35 15L34 15L34 13L32 13L32 12L31 12L31 13L30 13L30 14L28 14L28 13L29 13L29 12ZM6 13L6 14L7 14L7 13ZM22 14L22 15L23 15L23 14ZM14 15L14 16L15 16L15 15ZM1 16L1 17L0 17L0 20L1 20L1 17L2 17L2 16ZM5 17L5 18L4 18L4 19L5 19L5 20L8 20L8 21L6 21L6 22L8 22L8 24L9 24L9 23L10 23L10 21L11 21L11 20L10 20L10 21L9 21L9 19L8 19L8 18L7 18L7 17ZM9 17L9 18L10 18L10 17ZM18 17L18 18L19 18L19 17ZM21 17L21 18L22 18L22 20L23 20L23 21L24 21L24 22L22 22L22 21L21 21L21 23L20 23L20 22L19 22L19 24L18 24L18 23L17 23L17 22L16 22L16 21L15 21L15 22L16 22L16 24L18 24L18 26L19 26L19 28L20 28L20 29L21 29L21 27L20 27L20 26L21 26L21 25L24 25L24 26L25 26L25 25L24 25L24 24L26 24L26 26L28 26L28 27L29 27L29 26L31 26L31 25L29 25L29 24L36 24L36 23L34 23L34 21L32 21L32 22L33 22L33 23L29 23L29 24L28 24L28 23L27 23L27 22L28 22L28 21L29 21L29 20L27 20L27 21L25 21L25 20L26 20L26 19L27 19L27 18L28 18L28 17L26 17L26 18L25 18L25 20L23 20L23 19L24 19L24 18L22 18L22 17ZM5 18L5 19L7 19L7 18ZM33 18L33 19L34 19L34 18ZM18 19L18 20L19 20L19 19ZM8 21L8 22L9 22L9 21ZM30 21L30 22L31 22L31 21ZM25 22L25 23L26 23L26 24L27 24L27 23L26 23L26 22ZM0 23L0 24L1 24L1 25L0 25L0 29L1 29L1 26L2 26L2 25L3 25L3 24L1 24L1 23ZM14 23L14 24L15 24L15 23ZM21 23L21 24L20 24L20 25L19 25L19 26L20 26L20 25L21 25L21 24L22 24L22 23ZM28 25L28 26L29 26L29 25ZM32 25L32 26L33 26L33 25ZM34 25L34 26L35 26L35 25ZM9 26L9 29L10 29L10 26ZM5 27L5 28L7 28L7 27ZM29 29L29 32L32 32L32 29ZM18 30L18 31L19 31L19 30ZM27 30L27 32L28 32L28 30ZM30 30L30 31L31 31L31 30ZM14 31L14 32L15 32L15 31ZM8 32L8 37L9 37L9 36L10 36L10 35L11 35L11 37L12 37L12 35L13 35L13 34L9 34L9 32ZM26 33L26 34L27 34L27 35L28 35L28 34L29 34L29 33ZM31 33L31 34L32 34L32 33ZM33 33L33 34L34 34L34 33ZM20 35L20 36L21 36L21 35ZM0 0L0 7L7 7L7 0ZM1 1L1 6L6 6L6 1ZM2 2L2 5L5 5L5 2ZM30 0L30 7L37 7L37 0ZM31 1L31 6L36 6L36 1ZM32 2L32 5L35 5L35 2ZM0 30L0 37L7 37L7 30ZM1 31L1 36L6 36L6 31ZM2 32L2 35L5 35L5 32Z" fill="#000000"/></g></g></svg>
